g POT_Purple_cell.003
v -0.218798 -0.08487824 0.4659624
v -0.2281596 -0.07417238 0.4677188
v -0.2354497 0.02726259 0.2863753
v -0.1992947 0.4087118 -0.3010744
v -0.06629352 0.4320496 -0.1557129
v -0.07157228 0.4326418 -0.1499056
v -0.05544445 -0.2630287 0.4378063
v -0.1633817 -0.1453495 0.4566337
v -0.218798 -0.08487824 0.4659624
v -0.02028018 0.2853659 -0.1839182
v -0.02028015 0.4239911 -0.2058742
v 0.4220007 0.4150655 -0.2593114
v -0.07157228 0.4326418 -0.1499056
v -0.06629352 0.4320496 -0.1557129
v -0.02028015 0.4239911 -0.2058742
v -0.1344379 0.3248011 -0.06254869
v -0.02028018 0.2853659 -0.1839182
v -0.2012844 0.1689387 0.09970634
v -0.2069636 0.1556343 0.1135232
v -0.2012844 0.1689387 0.09970634
v -0.02028018 0.2853659 -0.1839182
v -0.02028022 0.03296932 -0.05531016
v -0.02027986 -0.1673339 0.1449931
v -0.2354497 0.02726259 0.2863753
v -0.218798 -0.08487824 0.4659624
v -0.02027986 -0.1673339 0.1449931
v -0.02027986 -0.2959366 0.3973846
v -0.05544445 -0.2630287 0.4378063
v -0.02027986 -0.3013318 0.4314495
v -0.2752945 -0.308388 0.3704718
v -0.3651924 -0.1590494 0.4044728
v -0.2281596 -0.07417238 0.4677188
v -0.218798 -0.08487824 0.4659624
v -0.1633817 -0.1453495 0.4566337
v -0.2574231 -0.3380157 0.3635939
v -0.1530751 -0.4221539 0.356377
v -0.0730311 -0.4823032 0.3524694
v -0.05544445 -0.2630287 0.4378063
v -0.0229066 -0.5199203 0.3497125
v -0.02027986 -0.3013318 0.4314495
v 0.04572784 -0.3112711 0.4425194
v -0.2574229 0.3226653 -0.2433156
v -0.1992947 0.4087118 -0.3010744
v -0.07157228 0.4326418 -0.1499056
v -0.2781605 0.2795531 -0.2018048
v -0.2939698 0.2344171 -0.1494979
v -0.1344379 0.3248011 -0.06254869
v -0.2012844 0.1689387 0.09970634
v -0.3451193 0.08773522 0.02006584
v -0.3707941 -0.05721617 0.2249959
v -0.2069636 0.1556343 0.1135232
v -0.2354497 0.02726259 0.2863753
v -0.3651924 -0.1590494 0.4044728
v -0.2281596 -0.07417238 0.4677188
v -0.02027986 -0.3013318 0.4314495
v 0.06184219 -0.3056227 0.3942373
v 0.04572784 -0.3112711 0.4425194
v -0.02027986 -0.2959366 0.3973846
v -0.02027986 -0.1673339 0.1449931
v 0.1892962 -0.1883612 0.129716
v -0.02028022 0.03296932 -0.05531016
v 0.3398919 0.006714293 -0.091447
v -0.02028018 0.2853659 -0.1839182
v 0.5004627 0.2654092 -0.245339
v 0.4220007 0.4150655 -0.2593114
v 0.5295582 0.321785 -0.2578764
v -0.01623685 -0.5209551 0.3242756
v -0.0730311 -0.4823032 0.3524694
v -0.0229066 -0.5199203 0.3497125
v -0.1530751 -0.4221539 0.356377
v -0.2574231 -0.3380157 0.3635939
v 0.05479624 -0.4830263 0.1325124
v -0.2574233 -0.2106109 0.1135491
v -0.2752945 -0.308388 0.3704718
v -0.3651924 -0.1590494 0.4044728
v -0.3707941 -0.05721617 0.2249959
v 0.05479624 -0.4023746 -0.0257768
v 0.1344591 -0.4078268 -0.02973804
v 0.05479629 -0.1377977 -0.2903551
v 0.3292196 -0.1514433 -0.3091339
v 0.05479638 0.1955885 -0.4602219
v 0.3777391 -0.0722824 -0.3540177
v -0.2574231 0.001526635 -0.09859055
v -0.3451193 0.08773522 0.02006584
v -0.2574228 0.2688357 -0.2347898
v -0.2939698 0.2344171 -0.1494979
v -0.2781605 0.2795531 -0.2018048
v -0.2574229 0.3226653 -0.2433156
v -0.1992947 0.4087118 -0.3010744
v 0.05479639 0.3786425 -0.4892151
v 0.3517659 0.3744662 -0.5136736
v 0.3777392 0.3523263 -0.512364
v 0.3777393 0.1871462 -0.4862028
v 0.5285088 0.1970233 -0.4558034
v 0.5437229 0.2293828 -0.457703
v 0.4220007 0.4150655 -0.2593114
v 0.3517659 0.3744662 -0.5136736
v 0.3777392 0.3523263 -0.512364
v 0.5437229 0.2293828 -0.457703
v 0.5295582 0.321785 -0.2578764
v 0.05479639 0.3786425 -0.4892151
v 0.3517659 0.3744662 -0.5136736
v 0.4220007 0.4150655 -0.2593114
v -0.1992947 0.4087118 -0.3010744
v -0.02028015 0.4239911 -0.2058742
v -0.06629352 0.4320496 -0.1557129
v 0.05479624 -0.4830263 0.1325124
v -0.01623685 -0.5209551 0.3242756
v -0.0229066 -0.5199203 0.3497125
v 0.04572784 -0.3112711 0.4425194
v 0.1344591 -0.4078268 -0.02973804
v 0.06184219 -0.3056227 0.3942373
v 0.3292196 -0.1514433 -0.3091339
v 0.1892962 -0.1883612 0.129716
v 0.3398919 0.006714293 -0.091447
v 0.3777391 -0.0722824 -0.3540177
v 0.5285088 0.1970233 -0.4558034
v 0.5004627 0.2654092 -0.245339
v 0.5437229 0.2293828 -0.457703
v 0.5295582 0.321785 -0.2578764
vt 0.9203373 0.6046647
vt 0.9203354 0.6046516
vt 0.9200855 0.602958
vt 0.3114045 0
vt 0.4474396 0.4474396
vt 0.4588058 0
vt 0.9204225 0.6048265
vt 0.9203706 0.6047279
vt 0.9203373 0.6046647
vt 0.9211192 0.5997826
vt 0.9217097 0.5991946
vt 0.921708 0.599196
vt 0.9217085 0.5991958
vt 0.9217099 0.5991944
vt 0.9217097 0.5991946
vt 0.9211192 0.5997826
vt 0.9211192 0.5997826
vt 0.9204055 0.6011824
vt 0.9203382 0.6013144
vt 0.9204055 0.6011824
vt 0.9211192 0.5997826
vt 0.9203382 0.6013144
vt 0.9200855 0.602958
vt 0.9200855 0.602958
vt 0.9203373 0.6046647
vt 0.9200855 0.602958
vt 0.9203373 0.6046647
vt 0.9204225 0.6048265
vt 0.9204321 0.6048447
vt 0.292236 0.7904706
vt 0.292236 0.7904706
vt 0.292236 0.7904706
vt 0.292236 0.7904706
vt 0.292236 0.7904706
vt 0.292236 0.7904706
vt 0.292236 0.7904706
vt 0.292236 0.7904706
vt 0.292236 0.7904706
vt 0.292236 0.7904706
vt 0.292236 0.7904706
vt 0.292236 0.7904706
vt 0.292236 0.7904706
vt 0.292236 0.7904706
vt 0.292236 0.7904706
vt 0.292236 0.7904706
vt 0.292236 0.7904706
vt 0.292236 0.7904706
vt 0.292236 0.7904706
vt 0.292236 0.7904706
vt 0.292236 0.7904706
vt 0.292236 0.7904706
vt 0.292236 0.7904706
vt 0.292236 0.7904706
vt 0.292236 0.7904706
vt 0.9204321 0.6048447
vt 0.9203373 0.6046647
vt 0.9204682 0.6049132
vt 0.9203373 0.6046647
vt 0.9200855 0.602958
vt 0.9200855 0.602958
vt 0.9203382 0.6013144
vt 0.9203382 0.6013144
vt 0.9211192 0.5997826
vt 0.9211192 0.5997826
vt 0.921708 0.599196
vt 0.9213474 0.5995554
vt 0.270452 0.7323277
vt 0.269533 0.7276084
vt 0.2689865 0.7317735
vt 0.2704877 0.7209572
vt 0.27188 0.7122864
vt 0.2814817 0.7382301
vt 0.2916522 0.7122864
vt 0.2722118 0.7093331
vt 0.2737802 0.6944772
vt 0.2919671 0.6935514
vt 0.2914694 0.7382301
vt 0.2913594 0.7436315
vt 0.312043 0.7382301
vt 0.3113931 0.756837
vt 0.3316852 0.7382301
vt 0.3159387 0.7601268
vt 0.3125125 0.7122864
vt 0.3130287 0.6977943
vt 0.332788 0.7122864
vt 0.3287023 0.7062469
vt 0.3329934 0.7088594
vt 0.3363257 0.7122864
vt 0.3421783 0.7174691
vt 0.341096 0.7382301
vt 0.3403488 0.7583656
vt 0.3391743 0.7601267
vt 0.3307608 0.7601267
vt 0.3304412 0.770882
vt 0.3320601 0.7719674
vt 0.292236 0.7904706
vt 0.292236 0.7904706
vt 0.292236 0.7904706
vt 0.292236 0.7904706
vt 0.292236 0.7904706
vt 0.292236 0.7904706
vt 0.292236 0.7904706
vt 0.292236 0.7904706
vt 0.292236 0.7904706
vt 0.292236 0.7904706
vt 0.292236 0.7904706
vt 0.292236 0.7904706
vt 0.292236 0.7904706
vt 0.292236 0.7904706
vt 0.292236 0.7904706
vt 0.292236 0.7904706
vt 0.292236 0.7904706
vt 0.292236 0.7904706
vt 0.292236 0.7904706
vt 0.292236 0.7904706
vt 0.292236 0.7904706
vt 0.292236 0.7904706
vt 0.292236 0.7904706
vt 0.292236 0.7904706
vt 0.292236 0.7904706
vn 0.7418023 0.6010778 0.2973801
vn 0.7411949 0.5981198 0.304767
vn 0.7453117 0.5422363 0.3879307
vn -0.03182488 0.9910046 -0.1299889
vn -0.03182488 0.9910046 -0.1299889
vn -0.03182488 0.9910046 -0.1299889
vn 0.7411923 0.6630324 0.1049865
vn 0.7411923 0.6630324 0.1049865
vn 0.7418023 0.6010778 0.2973801
vn 0.1230529 0.3066556 0.9438328
vn 0.1215579 0.1552511 0.9803677
vn 0.1215579 0.1552511 0.9803677
vn 0.7411923 0.1049865 0.6630324
vn 0.7411923 0.1049865 0.6630324
vn 0.7411923 0.1049865 0.6630324
vn 0.7448201 0.2409183 0.6222551
vn 0.7453178 0.2060374 0.6340741
vn 0.7411949 0.304767 0.5981198
vn 0.7451475 0.4090437 0.5267243
vn 0.7411949 0.304767 0.5981198
vn 0.7453178 0.2060374 0.6340741
vn 0.745315 0.3919 0.5393698
vn 0.7453027 0.5393915 0.3918935
vn 0.7453117 0.5422363 0.3879307
vn 0.7418023 0.6010778 0.2973801
vn 0.7453027 0.5393915 0.3918935
vn 0.7453081 0.6340963 0.2060042
vn 0.7411923 0.6630324 0.1049865
vn 0.7411923 0.6630324 0.1049865
vn -0.2140113 -0.3375323 0.9166631
vn -0.2140113 -0.3375323 0.9166631
vn -0.2140113 -0.3375323 0.9166631
vn -0.2140113 -0.3375323 0.9166631
vn -0.2140113 -0.3375323 0.9166631
vn -0.2106183 -0.3398286 0.9166004
vn -0.2106183 -0.3398286 0.9166004
vn -0.2051682 -0.3406307 0.9175385
vn -0.2051682 -0.3406307 0.9175385
vn -0.2051682 -0.3406307 0.9175385
vn -0.2051682 -0.3406307 0.9175385
vn -0.2051682 -0.3406307 0.9175385
vn -0.6078114 0.682766 0.4054576
vn -0.6078114 0.682766 0.4054576
vn -0.6078114 0.682766 0.4054576
vn -0.6078114 0.682766 0.4054576
vn -0.6078114 0.682766 0.4054576
vn -0.6078114 0.682766 0.4054576
vn -0.6078114 0.682766 0.4054576
vn -0.6092584 0.6813748 0.4056261
vn -0.6092584 0.6813748 0.4056261
vn -0.6092584 0.6813748 0.4056261
vn -0.6092584 0.6813748 0.4056261
vn -0.6092584 0.6813748 0.4056261
vn -0.6092584 0.6813748 0.4056261
vn 0.1215579 0.9803677 0.1552511
vn 0.1229923 0.9319639 0.3410517
vn 0.1215579 0.9803677 0.1552511
vn 0.1230529 0.9438328 0.3066556
vn 0.1230537 0.8028707 0.583315
vn 0.1229324 0.7759573 0.6186905
vn 0.1230537 0.583315 0.8028707
vn 0.122902 0.5431557 0.8305883
vn 0.1230529 0.3066556 0.9438328
vn 0.1229015 0.2595367 0.957881
vn 0.1215579 0.1552511 0.9803677
vn 0.1215579 0.1552511 0.9803677
vn -0.6043696 -0.7474431 -0.275801
vn -0.5999227 -0.7902121 -0.1251301
vn -0.5999227 -0.7902121 -0.1251301
vn -0.600778 -0.7175765 -0.3523487
vn -0.7225798 -0.6159446 -0.3138321
vn -0.5399985 -0.7499369 -0.3820946
vn -0.7357346 -0.5479174 -0.3980969
vn -0.8554637 -0.4614255 -0.2350923
vn -0.8554637 -0.4614255 -0.2350923
vn -0.8582693 -0.4173847 -0.2986028
vn -0.3497182 -0.7579415 -0.5506559
vn -0.0842025 -0.7791249 -0.621188
vn -0.3497182 -0.5506559 -0.7579415
vn -0.0841711 -0.5455557 -0.8338371
vn -0.3497173 -0.2895033 -0.8910025
vn -0.03817955 -0.4536378 -0.890368
vn -0.7357346 -0.3980969 -0.5479174
vn -0.8581707 -0.3149281 -0.4054177
vn -0.7357403 -0.2092741 -0.64412
vn -0.8554637 -0.2350923 -0.4614255
vn -0.8579298 -0.1860155 -0.4789098
vn -0.6633024 -0.1170408 -0.7391423
vn -0.5999204 -0.1251602 -0.7902091
vn -0.3555786 -0.1461867 -0.9231432
vn -0.0832551 -0.1558897 -0.9842597
vn -0.0004272684 -0.1564107 -0.9876919
vn 0.06131311 -0.3084272 -0.9492699
vn 0.2071644 -0.2580704 -0.9436538
vn 0.2049371 -0.1530848 -0.9667294
vn 0.6294398 0.7213333 -0.2889354
vn 0.6294398 0.7213333 -0.2889354
vn 0.6294398 0.7213333 -0.2889354
vn 0.6294398 0.7213333 -0.2889354
vn 0.6294398 0.7213333 -0.2889354
vn 0.0005992111 0.9874512 -0.1579237
vn 0.0005992111 0.9874512 -0.1579237
vn 0.0005992111 0.9874512 -0.1579237
vn 0.0005992111 0.9874512 -0.1579237
vn 0.0005992111 0.9874512 -0.1579237
vn 0.0005992111 0.9874512 -0.1579237
vn 0.8822705 -0.4003503 0.2476253
vn 0.8822705 -0.4003503 0.2476253
vn 0.8822705 -0.4003503 0.2476253
vn 0.8822705 -0.4003503 0.2476253
vn 0.8822705 -0.4003503 0.2476253
vn 0.8822705 -0.4003503 0.2476253
vn 0.8822705 -0.4003503 0.2476253
vn 0.8822705 -0.4003503 0.2476253
vn 0.8822705 -0.4003503 0.2476253
vn 0.8822705 -0.4003503 0.2476253
vn 0.8822705 -0.4003503 0.2476253
vn 0.8822705 -0.4003503 0.2476253
vn 0.8822705 -0.4003503 0.2476253
vn 0.8822705 -0.4003503 0.2476253
g POT_Purple_cell.003_0
f 3/3/3 2/2/2 1/1/1
f 6/6/6 5/5/5 4/4/4
f 9/9/9 8/8/8 7/7/7
f 12/12/12 11/11/11 10/10/10
f 15/15/15 14/14/14 13/13/13
f 15/15/15 13/13/13 16/16/16
f 16/16/16 17/17/17 15/15/15
f 17/17/17 16/16/16 18/18/18
f 21/21/21 20/20/20 19/19/19
f 19/19/19 22/22/22 21/21/21
f 22/22/22 19/19/19 23/23/23
f 19/19/19 24/24/24 23/23/23
f 26/26/26 24/24/24 25/25/25
f 25/25/25 27/27/27 26/26/26
f 27/27/27 25/25/25 28/28/28
f 28/28/28 29/29/29 27/27/27
f 32/32/32 31/31/31 30/30/30
f 33/33/33 32/32/32 30/30/30
f 30/30/30 34/34/34 33/33/33
f 34/34/34 30/30/30 35/35/35
f 34/34/34 35/35/35 36/36/36
f 34/34/34 36/36/36 37/37/37
f 37/37/37 38/38/38 34/34/34
f 38/38/38 37/37/37 39/39/39
f 40/40/40 38/38/38 39/39/39
f 39/39/39 41/41/41 40/40/40
f 44/44/44 43/43/43 42/42/42
f 42/42/42 45/45/45 44/44/44
f 45/45/45 46/46/46 44/44/44
f 46/46/46 47/47/47 44/44/44
f 46/46/46 48/48/48 47/47/47
f 48/48/48 46/46/46 49/49/49
f 49/49/49 50/50/50 48/48/48
f 50/50/50 51/51/51 48/48/48
f 50/50/50 52/52/52 51/51/51
f 50/50/50 53/53/53 52/52/52
f 53/53/53 54/54/54 52/52/52
f 57/57/57 56/56/56 55/55/55
f 56/56/56 58/58/58 55/55/55
f 59/59/59 58/58/58 56/56/56
f 60/60/60 59/59/59 56/56/56
f 61/61/61 59/59/59 60/60/60
f 62/62/62 61/61/61 60/60/60
f 63/63/63 61/61/61 62/62/62
f 64/64/64 63/63/63 62/62/62
f 65/65/65 63/63/63 64/64/64
f 64/64/64 66/66/66 65/65/65
f 69/69/69 68/68/68 67/67/67
f 68/68/68 70/70/70 67/67/67
f 67/67/67 70/70/70 71/71/71
f 72/72/72 67/67/67 71/71/71
f 72/72/72 71/71/71 73/73/73
f 73/73/73 71/71/71 74/74/74
f 74/74/74 75/75/75 73/73/73
f 75/75/75 76/76/76 73/73/73
f 73/73/73 77/77/77 72/72/72
f 78/78/78 72/72/72 77/77/77
f 78/78/78 77/77/77 79/79/79
f 79/79/79 77/77/77 73/73/73
f 80/80/80 78/78/78 79/79/79
f 80/80/80 79/79/79 81/81/81
f 82/82/82 80/80/80 81/81/81
f 81/81/81 79/79/79 83/83/83
f 83/83/83 79/79/79 73/73/73
f 83/83/83 73/73/73 76/76/76
f 84/84/84 83/83/83 76/76/76
f 85/85/85 83/83/83 84/84/84
f 85/85/85 81/81/81 83/83/83
f 84/84/84 86/86/86 85/85/85
f 86/86/86 87/87/87 85/85/85
f 88/88/88 85/85/85 87/87/87
f 85/85/85 88/88/88 89/89/89
f 81/81/81 85/85/85 89/89/89
f 89/89/89 90/90/90 81/81/81
f 81/81/81 90/90/90 91/91/91
f 81/81/81 91/91/91 92/92/92
f 81/81/81 93/93/93 82/82/82
f 92/92/92 93/93/93 81/81/81
f 94/94/94 82/82/82 93/93/93
f 94/94/94 93/93/93 92/92/92
f 95/95/95 94/94/94 92/92/92
f 98/98/98 97/97/97 96/96/96
f 96/96/96 99/99/99 98/98/98
f 96/96/96 100/100/100 99/99/99
f 103/103/103 102/102/102 101/101/101
f 101/101/101 104/104/104 103/103/103
f 104/104/104 105/105/105 103/103/103
f 104/104/104 106/106/106 105/105/105
f 109/109/109 108/108/108 107/107/107
f 107/107/107 110/110/110 109/109/109
f 107/107/107 111/111/111 110/110/110
f 111/111/111 112/112/112 110/110/110
f 111/111/111 113/113/113 112/112/112
f 113/113/113 114/114/114 112/112/112
f 113/113/113 115/115/115 114/114/114
f 113/113/113 116/116/116 115/115/115
f 116/116/116 117/117/117 115/115/115
f 117/117/117 118/118/118 115/115/115
f 117/117/117 119/119/119 118/118/118
f 119/119/119 120/120/120 118/118/118
