g POT_Purple_cell.009
v -0.2400619 -0.4633462 -0.1052443
v -0.2755057 -0.4622976 -0.1179439
v -0.2755056 -0.2173377 -0.1567416
v -0.2895014 -0.4590722 -0.1167189
v -0.3979092 -0.3646905 -0.118223
v -0.418628 -0.2173378 -0.1389918
v -0.3979092 -0.3646905 -0.118223
v -0.4033933 -0.3290867 -0.1231819
v -0.418628 -0.2173378 -0.1389918
v -0.0490947 0.5072158 0.2925041
v 0.31117 0.3122098 0.2754426
v 0.3111697 0.2342006 0.1974334
v -0.2755055 0.3561401 0.02959847
v -0.2755051 0.571987 0.2454452
v 0.3111697 0.02005009 0.08831368
v -0.2755055 0.08415755 -0.1089896
v 0.3111697 -0.2173377 0.05071523
v -0.2755056 -0.2173377 -0.1567416
v 0.3111697 -0.4547254 0.08831368
v 0.154791 -0.4718133 0.03572235
v -0.2400619 -0.4633462 -0.1052443
v 0.3111697 -0.472453 0.09734675
v 0.2528917 -0.4722687 0.07440852
v -0.0490947 0.5072158 0.2925041
v -0.2755051 0.5792781 0.2597545
v -0.1777664 0.5642535 0.3054577
v -0.4187251 0.3457 0.043968
v -0.3798717 0.5531266 0.2446639
v -0.335175 0.5660002 0.2497949
v -0.2755055 0.3561401 0.02959847
v -0.2755051 0.571987 0.2454452
v -0.2755051 0.5792781 0.2597545
v -0.2755056 -0.2173377 -0.1567416
v -0.4325423 0.07813934 -0.09046735
v -0.2755055 0.08415755 -0.1089896
v -0.418628 -0.2173378 -0.1389918
v -0.2755057 -0.4622976 -0.1179439
v -0.2895014 -0.4590722 -0.1167189
v -0.2755055 0.08415755 -0.1089896
v -0.4187251 0.3457 0.043968
v -0.2755055 0.3561401 0.02959847
v 0.5441573 0.07663026 0.3242798
v 0.6339499 0.1192707 0.2697679
v 0.6153295 -0.01112217 0.184256
v 0.5464154 -0.2173377 0.08790705
v 0.5272946 -0.03351313 0.253165
v 0.4146261 -0.480868 0.007858984
v 0.4616649 -0.2173377 0.1714143
v 0.3384524 -0.4479638 0.1091238
v 0.3831974 -0.5292307 0.0003053471
v 0.3228457 -0.4703617 0.1066615
v 0.3111697 -0.472453 0.09734675
v 0.3384524 -0.4479638 0.1091238
v 0.3228457 -0.4703617 0.1066615
v 0.3111697 -0.4547254 0.08831368
v 0.3111697 -0.2173377 0.05071523
v 0.4616649 -0.2173377 0.1714143
v 0.3111697 0.02005009 0.08831368
v 0.5272946 -0.03351313 0.253165
v 0.4755633 0.1567039 0.3040982
v 0.5441573 0.07663026 0.3242798
v 0.3111697 0.2342006 0.1974334
v 0.31117 0.3122098 0.2754426
v 0.4207784 0.2085839 0.2946057
v -0.2961836 0.746936 0.1183353
v -0.1141804 0.7392864 0.187265
v -0.1777664 0.5642535 0.3054577
v -0.2755051 0.5792781 0.2597545
v -0.335175 0.5660002 0.2497949
v -0.4488131 0.7416456 0.0698392
v -0.3798717 0.5531266 0.2446639
v -0.4440085 -0.4263705 -0.3712154
v -0.4687376 -0.4052107 -0.372475
v -0.3979092 -0.3646905 -0.118223
v -0.2758241 -0.5513633 -0.3157633
v -0.2895014 -0.4590722 -0.1167189
v 0.3111697 -0.472453 0.09734675
v 0.3228457 -0.4703617 0.1066615
v 0.3831974 -0.5292307 0.0003053471
v 0.2528917 -0.4722687 0.07440852
v 0.3371484 -0.5397646 -0.04149996
v 0.154791 -0.4718133 0.03572235
v 0.3088294 -0.5461887 -0.0672367
v -0.2400619 -0.4633462 -0.1052443
v -0.04759477 -0.5675791 -0.2590085
v -0.06686979 -0.5684558 -0.268757
v -0.2535358 -0.5533501 -0.3107234
v -0.2755057 -0.4622976 -0.1179439
v -0.2895014 -0.4590722 -0.1167189
v -0.2758241 -0.5513633 -0.3157633
v -0.2961836 0.746936 0.1183353
v -0.06686952 0.7241154 0.179311
v -0.1141804 0.7392864 0.187265
v -0.06686952 0.7076058 0.1469088
v 0.03240102 0.6664088 0.1768402
v -0.06686961 0.454673 -0.1060212
v 0.3088294 0.4770657 0.1855623
v -0.4440087 0.5016687 -0.1707068
v -0.4488131 0.7416456 0.0698392
v -0.4949548 0.4991354 -0.1672203
v -0.512743 0.1588695 -0.3389274
v 0.3088294 0.3413946 0.04989313
v 0.4958054 0.2797195 0.2295704
v 0.5734218 0.1976713 0.2477099
v 0.6339499 0.1192707 0.2697679
v -0.4440083 0.1606663 -0.3444575
v -0.4948268 -0.2173376 -0.4000236
v -0.4440086 -0.2173376 -0.404322
v -0.0668697 -0.2173376 -0.3243744
v -0.06686961 0.1359592 -0.2684156
v 0.3088292 0.07640527 -0.08512515
v 0.6153295 -0.01112217 0.184256
v 0.3088299 -0.2173377 -0.1316523
v 0.3088294 -0.5110804 -0.08512515
v 0.5464154 -0.2173377 0.08790705
v 0.4146261 -0.480868 0.007858984
v 0.3831974 -0.5292307 0.0003053471
v 0.3371484 -0.5397646 -0.04149996
v 0.3088294 -0.5461887 -0.0672367
v -0.04759477 -0.5675791 -0.2590085
v -0.06686979 -0.5684558 -0.268757
v -0.2535358 -0.5533501 -0.3107234
v -0.2758241 -0.5513633 -0.3157633
v -0.4440085 -0.4263705 -0.3712154
v -0.4687376 -0.4052107 -0.372475
v -0.4703815 -0.3946581 -0.3740073
v -0.1777664 0.5642535 0.3054577
v -0.1141804 0.7392864 0.187265
v -0.06686952 0.7241154 0.179311
v -0.0490947 0.5072158 0.2925041
v 0.03240102 0.6664088 0.1768402
v 0.3088294 0.4770657 0.1855623
v 0.31117 0.3122098 0.2754426
v 0.4207784 0.2085839 0.2946057
v 0.4958054 0.2797195 0.2295704
v 0.4755633 0.1567039 0.3040982
v 0.5441573 0.07663026 0.3242798
v 0.5734218 0.1976713 0.2477099
v 0.6339499 0.1192707 0.2697679
v -0.4703815 -0.3946581 -0.3740073
v -0.3979092 -0.3646905 -0.118223
v -0.4687376 -0.4052107 -0.372475
v -0.4033933 -0.3290867 -0.1231819
v -0.4948268 -0.2173376 -0.4000236
v -0.418628 -0.2173378 -0.1389918
v -0.4325423 0.07813934 -0.09046735
v -0.512743 0.1588695 -0.3389274
v -0.4187251 0.3457 0.043968
v -0.4949548 0.4991354 -0.1672203
v -0.3798717 0.5531266 0.2446639
v -0.4488131 0.7416456 0.0698392
vt 0.921328 0.5995746
vt 0.9213426 0.5995601
vt 0.9223108 0.598596
vt 0.9213541 0.5995488
vt 0.9217192 0.5991851
vt 0.9223108 0.598596
vt 0.9217192 0.5991851
vt 0.9218615 0.5990435
vt 0.9223108 0.598596
vt 0.927162 0.5978457
vt 0.9262636 0.5976846
vt 0.9255015 0.597548
vt 0.9255015 0.597548
vt 0.927162 0.5978457
vt 0.9238223 0.5978299
vt 0.9238223 0.5978299
vt 0.9223108 0.598596
vt 0.9223108 0.598596
vt 0.9211192 0.5997826
vt 0.9211192 0.5997826
vt 0.921328 0.5995746
vt 0.9210546 0.5999094
vt 0.9210805 0.5998585
vt 0.927162 0.5978457
vt 0.9272425 0.5978839
vt 0.9273964 0.5979568
vt 0.9255014 0.597548
vt 0.9270961 0.597834
vt 0.927162 0.5978457
vt 0.9255015 0.597548
vt 0.927162 0.5978457
vt 0.9272425 0.5978839
vt 0.9223108 0.598596
vt 0.9238223 0.5978299
vt 0.9238223 0.5978299
vt 0.9223108 0.598596
vt 0.9213426 0.5995601
vt 0.9213541 0.5995488
vt 0.9238223 0.5978299
vt 0.9255014 0.597548
vt 0.9255015 0.597548
vt 0.3378221 0.7832119
vt 0.3378221 0.7832119
vt 0.3378221 0.7832119
vt 0.3378221 0.7832119
vt 0.3378221 0.7832119
vt 0.3378221 0.7832119
vt 0.3378221 0.7832119
vt 0.3378221 0.7832119
vt 0.3378221 0.7832119
vt 0.3378221 0.7832119
vt 0.9210546 0.5999094
vt 0.9211192 0.5997826
vt 0.9210487 0.5999207
vt 0.9211192 0.5997826
vt 0.9223108 0.598596
vt 0.9223108 0.598596
vt 0.9238223 0.5978299
vt 0.9238223 0.5978299
vt 0.9255015 0.597548
vt 0.9250059 0.5976312
vt 0.9255015 0.597548
vt 0.9262636 0.5976846
vt 0.9257941 0.5976005
vt 0.3378221 0.7832119
vt 0.3378221 0.7832119
vt 0.3378221 0.7832119
vt 0.3378221 0.7832119
vt 0.3378221 0.7832119
vt 0.3378221 0.7832119
vt 0.3378221 0.7832119
vt 0.3378221 0.7832119
vt 0.3378221 0.7832119
vt 0.3378221 0.7832119
vt 0.3378221 0.7832119
vt 0.3378221 0.7832119
vt 0.3378221 0.7832119
vt 0.3378221 0.7832119
vt 0.3378221 0.7832119
vt 0.3378221 0.7832119
vt 0.3378221 0.7832119
vt 0.3378221 0.7832119
vt 0.3378221 0.7832119
vt 0.3378221 0.7832119
vt 0.3378221 0.7832119
vt 0.3378221 0.7832119
vt 0.3378221 0.7832119
vt 0.3378221 0.7832119
vt 0.3378221 0.7832119
vt 0.3378221 0.7832119
vt 0.4107131 0.7706719
vt 0.4123897 0.7870302
vt 0.4134348 0.7836552
vt 0.4101122 0.7870302
vt 0.4091988 0.7957137
vt 0.3894089 0.7870302
vt 0.399466 0.8198937
vt 0.3906155 0.7601267
vt 0.4088744 0.7601267
vt 0.3906718 0.7566724
vt 0.3701661 0.7554663
vt 0.3863956 0.8198937
vt 0.3869046 0.8357391
vt 0.3810199 0.8421524
vt 0.3754659 0.8471234
vt 0.3700801 0.7601267
vt 0.3501199 0.7566811
vt 0.3500144 0.7601267
vt 0.3493198 0.7870302
vt 0.3688214 0.7870302
vt 0.3670808 0.8198937
vt 0.3627933 0.8452192
vt 0.3474298 0.8198937
vt 0.3283634 0.8198937
vt 0.3452465 0.8393105
vt 0.3276041 0.8284777
vt 0.3246892 0.8259204
vt 0.3253486 0.8221877
vt 0.3258149 0.8198937
vt 0.3298795 0.7887163
vt 0.3300809 0.7870302
vt 0.3319152 0.7737143
vt 0.3321399 0.7721243
vt 0.3393673 0.7601267
vt 0.3404897 0.75845
vt 0.3410304 0.7583385
vt 0.3378221 0.7832119
vt 0.3378221 0.7832119
vt 0.3378221 0.7832119
vt 0.3378221 0.7832119
vt 0.3378221 0.7832119
vt 0.3378221 0.7832119
vt 0.3378221 0.7832119
vt 0.3378221 0.7832119
vt 0.3378221 0.7832119
vt 0.3378221 0.7832119
vt 0.3378221 0.7832119
vt 0.3378221 0.7832119
vt 0.3378221 0.7832119
vt 0.3378221 0.7832119
vt 0.3378221 0.7832119
vt 0.3378221 0.7832119
vt 0.3378221 0.7832119
vt 0.3378221 0.7832119
vt 0.3378221 0.7832119
vt 0.3378221 0.7832119
vt 0.3378221 0.7832119
vt 0.3378221 0.7832119
vt 0.3378221 0.7832119
vt 0.3378221 0.7832119
vt 0.3378221 0.7832119
vn -0.3297294 0.1476824 0.9324529
vn -0.3297294 0.1476824 0.9324529
vn -0.3333884 0 0.9427896
vn 0.1215579 0.1552511 0.9803677
vn 0.1215579 0.1552511 0.9803677
vn 0.1230527 -0.009247268 0.992357
vn 0.1215579 0.1552511 0.9803677
vn 0.1215579 0.1552511 0.9803677
vn 0.1230527 -0.009247268 0.992357
vn -0.3310407 -0.6880226 0.6457841
vn -0.3297229 -0.6675638 0.6675638
vn -0.3333616 -0.5541683 0.7627368
vn -0.3333616 -0.5541683 0.7627368
vn -0.3333616 -0.7627368 0.5541683
vn -0.3333892 -0.291334 0.8966472
vn -0.3333892 -0.291334 0.8966472
vn -0.3333884 0 0.9427896
vn -0.3333884 0 0.9427896
vn -0.3333892 0.291334 0.8966472
vn -0.3302509 0.158579 0.9304767
vn -0.3297294 0.1476824 0.9324529
vn -0.32973 0.4286123 0.8411716
vn -0.32973 0.4286123 0.8411716
vn -0.3310407 -0.6880226 0.6457841
vn -0.32973 -0.8411716 0.4286123
vn -0.32973 -0.8411716 0.4286123
vn 0.1230546 -0.5758416 0.8082475
vn 0.1215602 -0.701863 0.701863
vn 0.1220155 -0.7197324 0.6834452
vn 0.1230537 -0.583315 0.8028707
vn 0.1230537 -0.8028707 0.583315
vn 0.1215599 -0.8843992 0.450623
vn 0.1230543 0 0.9923999
vn 0.1230517 -0.3066833 0.9438239
vn 0.1230529 -0.3066556 0.9438328
vn 0.1230527 -0.009247268 0.992357
vn 0.1215579 0.1552511 0.9803677
vn 0.1215579 0.1552511 0.9803677
vn 0.1230529 -0.3066556 0.9438328
vn 0.1230546 -0.5758416 0.8082475
vn 0.1230537 -0.583315 0.8028707
vn 0.6104543 -0.4934705 0.6195421
vn 0.6104543 -0.4934705 0.6195421
vn 0.6104543 -0.4934705 0.6195421
vn 0.6104543 -0.4934705 0.6195421
vn 0.6104543 -0.4934705 0.6195421
vn 0.6104543 -0.4934705 0.6195421
vn 0.6104543 -0.4934705 0.6195421
vn 0.6104543 -0.4934705 0.6195421
vn 0.6104543 -0.4934705 0.6195421
vn 0.6104543 -0.4934705 0.6195421
vn -0.620915 0.3558854 0.698434
vn -0.6246596 0.187111 0.758149
vn -0.620915 0.3558854 0.698434
vn -0.6256458 0.241072 0.7419243
vn -0.6256474 0 0.7801059
vn -0.6251234 -0.04080408 0.7794586
vn -0.6256458 -0.241072 0.7419243
vn -0.6254939 -0.2626494 0.7346922
vn -0.6234725 -0.3893919 0.6779794
vn -0.620915 -0.3558854 0.698434
vn -0.6256541 -0.4585282 0.6311171
vn -0.6209108 -0.5542877 0.5542877
vn -0.6209108 -0.5542877 0.5542877
vn -0.260125 0.6035891 0.7536678
vn -0.260125 0.6035891 0.7536678
vn -0.260125 0.6035891 0.7536678
vn -0.260125 0.6035891 0.7536678
vn -0.260125 0.6035891 0.7536678
vn -0.260125 0.6035891 0.7536678
vn -0.260125 0.6035891 0.7536678
vn -0.6306261 -0.719716 0.2903783
vn -0.6306261 -0.719716 0.2903783
vn -0.6306261 -0.719716 0.2903783
vn -0.6306261 -0.719716 0.2903783
vn -0.6306261 -0.719716 0.2903783
vn -0.1625073 -0.8994673 0.4056475
vn -0.1625073 -0.8994673 0.4056475
vn -0.1625073 -0.8994673 0.4056475
vn -0.163806 -0.8996174 0.4047916
vn -0.163806 -0.8996174 0.4047916
vn -0.163806 -0.8996174 0.4047916
vn -0.163806 -0.8996174 0.4047916
vn -0.163806 -0.8996174 0.4047916
vn -0.163806 -0.8996174 0.4047916
vn -0.163806 -0.8996174 0.4047916
vn -0.163806 -0.8996174 0.4047916
vn -0.1715758 -0.8982151 0.4046867
vn -0.1715758 -0.8982151 0.4046867
vn -0.1715758 -0.8982151 0.4046867
vn 0.2040246 0.7108968 -0.6730524
vn 0.310353 0.8470082 -0.4315765
vn 0.2049376 0.8720911 -0.4443621
vn 0.3302814 0.7637185 -0.5546604
vn 0.453575 0.649874 -0.6098633
vn 0.3303065 0.5549566 -0.7634925
vn 0.5394004 0.5954036 -0.5954341
vn 0.06152615 0.5868179 -0.8073781
vn 0.1815895 0.6958389 -0.6948622
vn -0.0842642 0.5780994 -0.8116037
vn -0.08426312 0.3079068 -0.9476777
vn 0.5665876 0.4843386 -0.6666293
vn 0.6741368 0.5222737 -0.5222737
vn 0.6766372 0.3672659 -0.6381832
vn 0.674147 0.3353186 -0.6580938
vn 0.06131311 0.3084272 -0.9492699
vn -0.08426423 0.009369475 -0.9963994
vn 0.06131234 0 -0.9981186
vn 0.3307392 0 -0.9437222
vn 0.3307366 0.291611 -0.8975391
vn 0.5665898 0.2546221 -0.7836732
vn 0.6785342 0.2469617 -0.6918101
vn 0.5665806 0 -0.8240063
vn 0.5665898 -0.2546221 -0.7836732
vn 0.678196 0.03808787 -0.7338934
vn 0.6777393 -0.1760956 -0.7139046
vn 0.674147 -0.3353186 -0.6580938
vn 0.674147 -0.3353186 -0.6580938
vn 0.5797673 -0.369889 -0.7259834
vn 0.4524819 -0.1479279 -0.8794189
vn 0.3370823 -0.1472847 -0.9298832
vn 0.2049362 -0.1531146 -0.966725
vn 0.2049362 -0.1531146 -0.966725
vn 0.125251 -0.1551904 -0.9799123
vn -0.08322518 -0.1558603 -0.9842668
vn -0.08322518 -0.1558603 -0.9842668
vn 0.2893598 0.4613342 0.8387143
vn 0.2893598 0.4613342 0.8387143
vn 0.2893598 0.4613342 0.8387143
vn 0.2893598 0.4613342 0.8387143
vn 0.2893598 0.4613342 0.8387143
vn 0.2893598 0.4613342 0.8387143
vn 0.2893598 0.4613342 0.8387143
vn 0.2893598 0.4613342 0.8387143
vn 0.2893598 0.4613342 0.8387143
vn 0.2906156 0.4603653 0.8388125
vn 0.2906156 0.4603653 0.8388125
vn 0.2906156 0.4603653 0.8388125
vn 0.2906156 0.4603653 0.8388125
vn -0.9531837 -0.1074502 0.2826578
vn -0.9531837 -0.1074502 0.2826578
vn -0.9531837 -0.1074502 0.2826578
vn -0.9531837 -0.1074502 0.2826578
vn -0.9559695 -0.09085399 0.2790485
vn -0.9559695 -0.09085399 0.2790485
vn -0.9559695 -0.09085399 0.2790485
vn -0.9559695 -0.09085399 0.2790485
vn -0.9559695 -0.09085399 0.2790485
vn -0.9559695 -0.09085399 0.2790485
vn -0.9559695 -0.09085399 0.2790485
vn -0.9559695 -0.09085399 0.2790485
g POT_Purple_cell.009_0
f 3/3/3 2/2/2 1/1/1
f 6/6/6 5/5/5 4/4/4
f 9/9/9 8/8/8 7/7/7
f 12/12/12 11/11/11 10/10/10
f 10/10/10 13/13/13 12/12/12
f 10/10/10 14/14/14 13/13/13
f 12/12/12 13/13/13 15/15/15
f 13/13/13 16/16/16 15/15/15
f 15/15/15 16/16/16 17/17/17
f 16/16/16 18/18/18 17/17/17
f 19/19/19 17/17/17 18/18/18
f 18/18/18 20/20/20 19/19/19
f 18/18/18 21/21/21 20/20/20
f 22/22/22 19/19/19 20/20/20
f 23/23/23 22/22/22 20/20/20
f 25/25/25 14/14/14 24/24/24
f 26/26/26 25/25/25 24/24/24
f 29/29/29 28/28/28 27/27/27
f 29/29/29 27/27/27 30/30/30
f 30/30/30 31/31/31 29/29/29
f 32/32/32 29/29/29 31/31/31
f 35/35/35 34/34/34 33/33/33
f 34/34/34 36/36/36 33/33/33
f 37/37/37 33/33/33 36/36/36
f 36/36/36 38/38/38 37/37/37
f 40/40/40 34/34/34 39/39/39
f 41/41/41 40/40/40 39/39/39
f 44/44/44 43/43/43 42/42/42
f 42/42/42 45/45/45 44/44/44
f 42/42/42 46/46/46 45/45/45
f 46/46/46 47/47/47 45/45/45
f 46/46/46 48/48/48 47/47/47
f 48/48/48 49/49/49 47/47/47
f 49/49/49 50/50/50 47/47/47
f 49/49/49 51/51/51 50/50/50
f 54/54/54 53/53/53 52/52/52
f 53/53/53 55/55/55 52/52/52
f 56/56/56 55/55/55 53/53/53
f 57/57/57 56/56/56 53/53/53
f 58/58/58 56/56/56 57/57/57
f 59/59/59 58/58/58 57/57/57
f 60/60/60 58/58/58 59/59/59
f 59/59/59 61/61/61 60/60/60
f 60/60/60 62/62/62 58/58/58
f 63/63/63 62/62/62 60/60/60
f 64/64/64 63/63/63 60/60/60
f 67/67/67 66/66/66 65/65/65
f 65/65/65 68/68/68 67/67/67
f 65/65/65 69/69/69 68/68/68
f 65/65/65 70/70/70 69/69/69
f 70/70/70 71/71/71 69/69/69
f 74/74/74 73/73/73 72/72/72
f 72/72/72 75/75/75 74/74/74
f 75/75/75 76/76/76 74/74/74
f 79/79/79 78/78/78 77/77/77
f 79/79/79 77/77/77 80/80/80
f 80/80/80 81/81/81 79/79/79
f 81/81/81 80/80/80 82/82/82
f 83/83/83 81/81/81 82/82/82
f 83/83/83 82/82/82 84/84/84
f 85/85/85 83/83/83 84/84/84
f 86/86/86 85/85/85 84/84/84
f 84/84/84 87/87/87 86/86/86
f 88/88/88 87/87/87 84/84/84
f 87/87/87 88/88/88 89/89/89
f 89/89/89 90/90/90 87/87/87
f 93/93/93 92/92/92 91/91/91
f 92/92/92 94/94/94 91/91/91
f 92/92/92 95/95/95 94/94/94
f 96/96/96 94/94/94 95/95/95
f 91/91/91 94/94/94 96/96/96
f 96/96/96 95/95/95 97/97/97
f 96/96/96 98/98/98 91/91/91
f 98/98/98 99/99/99 91/91/91
f 99/99/99 98/98/98 100/100/100
f 100/100/100 98/98/98 101/101/101
f 97/97/97 102/102/102 96/96/96
f 97/97/97 103/103/103 102/102/102
f 103/103/103 104/104/104 102/102/102
f 102/102/102 104/104/104 105/105/105
f 98/98/98 106/106/106 101/101/101
f 101/101/101 106/106/106 107/107/107
f 106/106/106 108/108/108 107/107/107
f 109/109/109 108/108/108 106/106/106
f 96/96/96 110/110/110 98/98/98
f 110/110/110 106/106/106 98/98/98
f 96/96/96 102/102/102 110/110/110
f 110/110/110 109/109/109 106/106/106
f 111/111/111 102/102/102 105/105/105
f 102/102/102 111/111/111 110/110/110
f 110/110/110 111/111/111 109/109/109
f 105/105/105 112/112/112 111/111/111
f 111/111/111 112/112/112 113/113/113
f 111/111/111 113/113/113 109/109/109
f 109/109/109 113/113/113 114/114/114
f 112/112/112 115/115/115 113/113/113
f 113/113/113 115/115/115 114/114/114
f 115/115/115 116/116/116 114/114/114
f 114/114/114 116/116/116 117/117/117
f 114/114/114 117/117/117 118/118/118
f 118/118/118 119/119/119 114/114/114
f 120/120/120 114/114/114 119/119/119
f 114/114/114 120/120/120 109/109/109
f 120/120/120 121/121/121 109/109/109
f 108/108/108 109/109/109 121/121/121
f 121/121/121 122/122/122 108/108/108
f 122/122/122 123/123/123 108/108/108
f 123/123/123 124/124/124 108/108/108
f 108/108/108 124/124/124 125/125/125
f 125/125/125 107/107/107 108/108/108
f 125/125/125 126/126/126 107/107/107
f 129/129/129 128/128/128 127/127/127
f 129/129/129 127/127/127 130/130/130
f 131/131/131 129/129/129 130/130/130
f 132/132/132 131/131/131 130/130/130
f 132/132/132 130/130/130 133/133/133
f 132/132/132 133/133/133 134/134/134
f 134/134/134 135/135/135 132/132/132
f 135/135/135 134/134/134 136/136/136
f 135/135/135 136/136/136 137/137/137
f 138/138/138 135/135/135 137/137/137
f 137/137/137 139/139/139 138/138/138
f 142/142/142 141/141/141 140/140/140
f 141/141/141 143/143/143 140/140/140
f 144/144/144 140/140/140 143/143/143
f 143/143/143 145/145/145 144/144/144
f 145/145/145 146/146/146 144/144/144
f 146/146/146 147/147/147 144/144/144
f 146/146/146 148/148/148 147/147/147
f 148/148/148 149/149/149 147/147/147
f 148/148/148 150/150/150 149/149/149
f 150/150/150 151/151/151 149/149/149
